<svg height="485pt" viewBox="0 0 485 485" width="485pt" xmlns="http://www.w3.org/2000/svg"><path d="m89.015625 189.90625h67.507813v203.097656h-67.507813zm0 0"/><path d="m122.324219 162.1875h.445312c23.550781 0 38.195313-15.601562 38.195313-35.101562-.445313-19.929688-14.644532-35.089844-37.753906-35.089844-23.105469 0-38.210938 15.160156-38.210938 35.089844 0 19.5 14.679688 35.101562 37.324219 35.101562zm0 0"/><path d="m261.398438 393.003906v-113.429687c0-6.085938.464843-12.117188 2.242187-16.457031 4.886719-12.148438 15.976563-24.691407 34.640625-24.691407 24.4375 0 34.195312 18.628907 34.195312 45.917969v108.65625h67.523438v-116.464844c0-62.378906-33.308594-91.398437-77.742188-91.398437-35.871093 0-51.886718 19.742187-60.859374 33.546875v.664062h-.441407c.117188-.21875.308594-.441406.441407-.664062v-28.777344h-67.535157c.90625 19.050781 0 203.09375 0 203.09375h67.535157zm0 0"/><path d="m0 0v485h485v-485zm455 455h-425v-425h425zm0 0"/></svg>