<?xml version="1.0" encoding="iso-8859-1"?>
<!-- Generator: Adobe Illustrator 16.0.0, SVG Export Plug-In . SVG Version: 6.00 Build 0)  -->
<!DOCTYPE svg PUBLIC "-//W3C//DTD SVG 1.1//EN" "http://www.w3.org/Graphics/SVG/1.1/DTD/svg11.dtd">
<svg version="1.1" id="Capa_1" xmlns="http://www.w3.org/2000/svg" xmlns:xlink="http://www.w3.org/1999/xlink" x="0px" y="0px"
	 width="94px" height="94px" viewBox="0 0 94 94" style="enable-background:new 0 0 94 94;" xml:space="preserve">
<g>
	<path d="M89,0H5C2.239,0,0,2.239,0,5v84c0,2.761,2.239,5,5,5h84c2.762,0,5-2.239,5-5V5C94,2.239,91.762,0,89,0z M26.414,84.201
		H10.966V34.503h15.447L26.414,84.201L26.414,84.201z M18.693,27.71c-4.951,0-8.959-4.013-8.959-8.958
		c0.001-4.938,4.01-8.952,8.959-8.952c4.939,0,8.951,4.012,8.951,8.952C27.644,23.697,23.632,27.71,18.693,27.71z M84.266,84.2
		H68.832V60.033c0-5.764-0.105-13.178-8.029-13.178c-8.033,0-9.268,6.278-9.268,12.759V84.2H36.099V34.503h14.816v6.79h0.207
		c2.063-3.907,7.103-8.027,14.614-8.027c15.641,0,18.529,10.294,18.529,23.673V84.2L84.266,84.2z"/>
</g>
<g>
</g>
<g>
</g>
<g>
</g>
<g>
</g>
<g>
</g>
<g>
</g>
<g>
</g>
<g>
</g>
<g>
</g>
<g>
</g>
<g>
</g>
<g>
</g>
<g>
</g>
<g>
</g>
<g>
</g>
</svg>
