<?xml version="1.0" standalone="no"?>
<!DOCTYPE svg PUBLIC "-//W3C//DTD SVG 20010904//EN"
 "http://www.w3.org/TR/2001/REC-SVG-20010904/DTD/svg10.dtd">
<svg version="1.0" xmlns="http://www.w3.org/2000/svg"
 width="648.000000pt" height="648.000000pt" viewBox="0 0 648.000000 648.000000"
 preserveAspectRatio="xMidYMid meet">

<g transform="translate(0.000000,648.000000) scale(0.100000,-0.100000)"
fill="#000000" stroke="none">
<path d="M4120 3950 c0 -309 -2 -361 -15 -366 -8 -3 -44 10 -79 30 -35 20 -71
36 -80 36 -17 0 -458 -251 -488 -278 -16 -14 -18 -41 -18 -297 0 -256 2 -283
18 -297 30 -27 471 -278 488 -278 16 0 417 227 472 267 l32 24 0 673 c0 628
-1 674 -17 688 -34 29 -273 158 -293 158 -20 0 -20 -7 -20 -360z m-89 -727
l80 -46 -3 -101 -3 -100 -81 -49 -82 -48 -78 47 c-44 26 -82 53 -87 58 -4 6
-6 51 -5 100 l3 90 80 48 c44 26 83 48 88 48 4 0 44 -21 88 -47z"/>
<path d="M1195 3649 c-71 -38 -389 -220 -427 -245 l-38 -24 0 -375 c0 -346 1
-375 17 -375 21 0 283 147 301 168 8 11 12 66 12 192 0 140 3 180 15 197 17
24 135 93 160 93 20 0 150 -75 162 -93 4 -6 10 -97 13 -202 l5 -190 144 -83
c79 -46 151 -81 160 -80 14 3 16 42 19 358 1 195 0 365 -3 377 -3 15 -71 60
-249 162 -134 78 -245 141 -247 141 -3 0 -22 -10 -44 -21z"/>
<path d="M5050 3524 c-129 -74 -241 -143 -247 -152 -10 -12 -13 -86 -13 -288
0 -244 2 -274 18 -293 17 -21 467 -281 486 -281 11 0 282 145 304 162 6 6 12
16 12 23 0 7 -108 74 -240 149 l-240 137 0 99 0 100 77 45 c43 25 84 45 93 45
8 0 50 -21 93 -46 l77 -45 0 -80 c0 -61 3 -81 15 -85 14 -6 292 157 307 180 4
6 8 47 8 92 0 65 -4 84 -17 97 -26 23 -453 267 -477 272 -14 4 -96 -38 -256
-131z"/>
<path d="M5247 3172 l-47 -27 0 -56 0 -56 49 -27 49 -26 46 27 c46 28 46 28
46 83 l0 55 -48 27 -47 27 -48 -27z"/>
</g>
</svg>
